HIERARCHY
ROOT Root
{
  OFFSET 0.0 0.0 0.0
  CHANNELS 6 Xposition Yposition Zposition Zrotation Yrotation Xrotation
  JOINT Hips
  {
    OFFSET 0.0 100.0 0.0
    CHANNELS 6 Xposition Yposition Zposition Zrotation Yrotation Xrotation
    JOINT Spine1
    {
      OFFSET -0.013727 5.003763 -0.053727
      CHANNELS 3 Zrotation Yrotation Xrotation
      JOINT Spine2
      {
        OFFSET -0.0 7.125301 -0.029825
        CHANNELS 3 Zrotation Yrotation Xrotation
        JOINT Chest
        {
          OFFSET -1e-06 7.550063 -0.815971
          CHANNELS 3 Zrotation Yrotation Xrotation
          JOINT Neck1
          {
            OFFSET -0.181677 26.311295 -0.553348
            CHANNELS 3 Zrotation Yrotation Xrotation
            JOINT Neck2
            {
              OFFSET -3e-06 7.709397 2.302585
              CHANNELS 3 Zrotation Yrotation Xrotation
              JOINT Head
              {
                OFFSET -5e-06 6.128916 1.953709
                CHANNELS 3 Zrotation Yrotation Xrotation
                JOINT HeadEnd
                {
                  OFFSET 0.003598 16.065403 -1.835379
                  CHANNELS 3 Zrotation Yrotation Xrotation
                }
                JOINT Jaw
                {
                  OFFSET 0.002637 0.475592 3.094941
                  CHANNELS 3 Zrotation Yrotation Xrotation
                }
                JOINT LeftEye
                {
                  OFFSET 3.206381 5.380205 7.586883
                  CHANNELS 3 Zrotation Yrotation Xrotation
                }
                JOINT RightEye
                {
                  OFFSET -3.22244 5.361869 7.558234
                  CHANNELS 3 Zrotation Yrotation Xrotation
                }
              }
            }
          }
          JOINT LeftShoulder
          {
            OFFSET 1.621652 23.237164 5.113413
            CHANNELS 3 Zrotation Yrotation Xrotation
            JOINT LeftArm
            {
              OFFSET 14.919846 2e-06 -5.502326
              CHANNELS 3 Zrotation Yrotation Xrotation
              JOINT LeftForeArm
              {
                OFFSET 28.739307 0.0 -0.002588
                CHANNELS 3 Zrotation Yrotation Xrotation
                JOINT LeftHand
                {
                  OFFSET 27.093981 -1e-06 0.002609
                  CHANNELS 3 Zrotation Yrotation Xrotation
                  JOINT LeftHandThumb1
                  {
                    OFFSET 2.276482 -1.392045 3.191413
                    CHANNELS 3 Zrotation Yrotation Xrotation
                    JOINT LeftHandThumb2
                    {
                      OFFSET 4.012836 -1.828127 1.641654
                      CHANNELS 3 Zrotation Yrotation Xrotation
                      JOINT LeftHandThumb3
                      {
                        OFFSET 2.798515 0.0 -3e-06
                        CHANNELS 3 Zrotation Yrotation Xrotation
                        JOINT LeftHandThumbEnd
                        {
                          OFFSET 3.180793 -4e-06 4e-06
                          CHANNELS 3 Zrotation Yrotation Xrotation
                        }
                      }
                    }
                  }
                  JOINT LeftHandIndex1
                  {
                    OFFSET 3.247555 -0.531998 2.296169
                    CHANNELS 3 Zrotation Yrotation Xrotation
                    JOINT LeftHandIndex2
                    {
                      OFFSET 6.364578 0.01206 0.1786
                      CHANNELS 3 Zrotation Yrotation Xrotation
                      JOINT LeftHandIndex3
                      {
                        OFFSET 3.662364 0.0 0.0
                        CHANNELS 3 Zrotation Yrotation Xrotation
                        JOINT LeftHandIndex4
                        {
                          OFFSET 2.329242 4e-06 4e-06
                          CHANNELS 3 Zrotation Yrotation Xrotation
                          JOINT LeftHandIndexEnd
                          {
                            OFFSET 2.759615 -0.180537 -0.113024
                            CHANNELS 3 Zrotation Yrotation Xrotation
                          }
                        }
                      }
                    }
                  }
                  JOINT LeftHandMiddle1
                  {
                    OFFSET 3.163495 0.240981 1.000332
                    CHANNELS 3 Zrotation Yrotation Xrotation
                    JOINT LeftHandMiddle2
                    {
                      OFFSET 6.19078 -0.259278 -1.002548
                      CHANNELS 3 Zrotation Yrotation Xrotation
                      JOINT LeftHandMiddle3
                      {
                        OFFSET 4.35652 -4e-06 -1e-06
                        CHANNELS 3 Zrotation Yrotation Xrotation
                        JOINT LeftHandMiddle4
                        {
                          OFFSET 2.996877 -8e-06 0.0
                          CHANNELS 3 Zrotation Yrotation Xrotation
                          JOINT LeftHandMiddleEnd
                          {
                            OFFSET 2.304287 -0.294569 -0.031741
                            CHANNELS 3 Zrotation Yrotation Xrotation
                          }
                        }
                      }
                    }
                  }
                  JOINT LeftHandRing1
                  {
                    OFFSET 2.882643 -0.053652 -0.322543
                    CHANNELS 3 Zrotation Yrotation Xrotation
                    JOINT LeftHandRing2
                    {
                      OFFSET 5.854541 -0.486202 -1.373841
                      CHANNELS 3 Zrotation Yrotation Xrotation
                      JOINT LeftHandRing3
                      {
                        OFFSET 4.350578 0.0 3e-06
                        CHANNELS 3 Zrotation Yrotation Xrotation
                        JOINT LeftHandRing4
                        {
                          OFFSET 2.651321 7e-06 2e-06
                          CHANNELS 3 Zrotation Yrotation Xrotation
                          JOINT LeftHandRingEnd
                          {
                            OFFSET 1.936105 0.077687 -7.1e-05
                            CHANNELS 3 Zrotation Yrotation Xrotation
                          }
                        }
                      }
                    }
                  }
                  JOINT LeftHandPinky1
                  {
                    OFFSET 2.8655 -0.310005 -1.600378
                    CHANNELS 3 Zrotation Yrotation Xrotation
                    JOINT LeftHandPinky2
                    {
                      OFFSET 5.087849 -1.331141 -1.77123
                      CHANNELS 3 Zrotation Yrotation Xrotation
                      JOINT LeftHandPinky3
                      {
                        OFFSET 3.070974 4e-06 0.0
                        CHANNELS 3 Zrotation Yrotation Xrotation
                        JOINT LeftHandPinky4
                        {
                          OFFSET 1.549672 0.0 1e-06
                          CHANNELS 3 Zrotation Yrotation Xrotation
                          JOINT LeftHandPinkyEnd
                          {
                            OFFSET 1.944893 -0.157802 0.057219
                            CHANNELS 3 Zrotation Yrotation Xrotation
                          }
                        }
                      }
                    }
                  }
                }
              }
            }
          }
          JOINT RightShoulder
          {
            OFFSET -1.380118 23.180309 5.214158
            CHANNELS 3 Zrotation Yrotation Xrotation
            JOINT RightArm
            {
              OFFSET -15.037196 1.2e-05 -5.545604
              CHANNELS 3 Zrotation Yrotation Xrotation
              JOINT RightForeArm
              {
                OFFSET -28.736639 2e-06 -0.002597
                CHANNELS 3 Zrotation Yrotation Xrotation
                JOINT RightHand
                {
                  OFFSET -27.133619 -0.0 0.002613
                  CHANNELS 3 Zrotation Yrotation Xrotation
                  JOINT RightHandThumb1
                  {
                    OFFSET -2.274032 -1.383988 3.163127
                    CHANNELS 3 Zrotation Yrotation Xrotation
                    JOINT RightHandThumb2
                    {
                      OFFSET -4.011429 -1.827466 1.640914
                      CHANNELS 3 Zrotation Yrotation Xrotation
                      JOINT RightHandThumb3
                      {
                        OFFSET -2.794935 -4e-06 -3e-06
                        CHANNELS 3 Zrotation Yrotation Xrotation
                        JOINT RightHandThumbEnd
                        {
                          OFFSET -3.183852 4e-06 1e-06
                          CHANNELS 3 Zrotation Yrotation Xrotation
                        }
                      }
                    }
                  }
                  JOINT RightHandIndex1
                  {
                    OFFSET -3.253266 -0.520057 2.282866
                    CHANNELS 3 Zrotation Yrotation Xrotation
                    JOINT RightHandIndex2
                    {
                      OFFSET -6.341917 0.012471 0.178266
                      CHANNELS 3 Zrotation Yrotation Xrotation
                      JOINT RightHandIndex3
                      {
                        OFFSET -3.654871 -8e-06 -0.0
                        CHANNELS 3 Zrotation Yrotation Xrotation
                        JOINT RightHandIndex4
                        {
                          OFFSET -2.327586 0.0 1e-06
                          CHANNELS 3 Zrotation Yrotation Xrotation
                          JOINT RightHandIndexEnd
                          {
                            OFFSET -2.76179 -0.180656 -0.113078
                            CHANNELS 3 Zrotation Yrotation Xrotation
                          }
                        }
                      }
                    }
                  }
                  JOINT RightHandMiddle1
                  {
                    OFFSET -3.168106 0.246593 1.00103
                    CHANNELS 3 Zrotation Yrotation Xrotation
                    JOINT RightHandMiddle2
                    {
                      OFFSET -6.180828 -0.258836 -1.000895
                      CHANNELS 3 Zrotation Yrotation Xrotation
                      JOINT RightHandMiddle3
                      {
                        OFFSET -4.348901 0.0 -0.0
                        CHANNELS 3 Zrotation Yrotation Xrotation
                        JOINT RightHandMiddle4
                        {
                          OFFSET -3.00024 -4e-06 -2e-06
                          CHANNELS 3 Zrotation Yrotation Xrotation
                          JOINT RightHandMiddleEnd
                          {
                            OFFSET -2.30252 -0.29437 -0.031706
                            CHANNELS 3 Zrotation Yrotation Xrotation
                          }
                        }
                      }
                    }
                  }
                  JOINT RightHandRing1
                  {
                    OFFSET -2.88569 -0.067952 -0.308858
                    CHANNELS 3 Zrotation Yrotation Xrotation
                    JOINT RightHandRing2
                    {
                      OFFSET -5.854198 -0.48613 -1.373731
                      CHANNELS 3 Zrotation Yrotation Xrotation
                      JOINT RightHandRing3
                      {
                        OFFSET -4.33881 -4e-06 -0.0
                        CHANNELS 3 Zrotation Yrotation Xrotation
                        JOINT RightHandRing4
                        {
                          OFFSET -2.654903 -4e-06 4e-06
                          CHANNELS 3 Zrotation Yrotation Xrotation
                          JOINT RightHandRingEnd
                          {
                            OFFSET -1.933568 0.077527 -5.2e-05
                            CHANNELS 3 Zrotation Yrotation Xrotation
                          }
                        }
                      }
                    }
                  }
                  JOINT RightHandPinky1
                  {
                    OFFSET -2.866425 -0.342796 -1.584145
                    CHANNELS 3 Zrotation Yrotation Xrotation
                    JOINT RightHandPinky2
                    {
                      OFFSET -5.091371 -1.332055 -1.772385
                      CHANNELS 3 Zrotation Yrotation Xrotation
                      JOINT RightHandPinky3
                      {
                        OFFSET -3.062664 -4e-06 1e-06
                        CHANNELS 3 Zrotation Yrotation Xrotation
                        JOINT RightHandPinky4
                        {
                          OFFSET -1.546529 4e-06 -2e-06
                          CHANNELS 3 Zrotation Yrotation Xrotation
                          JOINT RightHandPinkyEnd
                          {
                            OFFSET -1.945119 -0.157718 0.057211
                            CHANNELS 3 Zrotation Yrotation Xrotation
                          }
                        }
                      }
                    }
                  }
                }
              }
            }
          }
        }
      }
    }
    JOINT LeftLeg
    {
      OFFSET 10.043214 -8.434526 2.595655
      CHANNELS 3 Zrotation Yrotation Xrotation
      JOINT LeftShin
      {
        OFFSET -1e-06 -43.221752 -0.802913
        CHANNELS 3 Zrotation Yrotation Xrotation
        JOINT LeftFoot
        {
          OFFSET 1e-06 -42.155094 -3.481523
          CHANNELS 3 Zrotation Yrotation Xrotation
          JOINT LeftToeBase
          {
            OFFSET 0.0 -5.059472 13.231529
            CHANNELS 3 Zrotation Yrotation Xrotation
            JOINT LeftToeEnd
            {
              OFFSET -0.009607 -1.647619 6.513017
              CHANNELS 3 Zrotation Yrotation Xrotation
            }
          }
        }
      }
    }
    JOINT RightLeg
    {
      OFFSET -10.047278 -8.29526 2.620317
      CHANNELS 3 Zrotation Yrotation Xrotation
      JOINT RightShin
      {
        OFFSET 1e-06 -43.362206 -0.805556
        CHANNELS 3 Zrotation Yrotation Xrotation
        JOINT RightFoot
        {
          OFFSET 2e-06 -42.117393 -3.478398
          CHANNELS 3 Zrotation Yrotation Xrotation
          JOINT RightToeBase
          {
            OFFSET -0.0 -5.079609 13.284196
            CHANNELS 3 Zrotation Yrotation Xrotation
            JOINT RightToeEnd
            {
              OFFSET 0.009532 -1.634378 6.460591
              CHANNELS 3 Zrotation Yrotation Xrotation
            }
          }
        }
      }
    }
  }
}
MOTION
Frames: 4
Frame Time: 0.03333333333333333
0.0 0.0 0.0 0.0 -0.0 0.0 -1.216905 99.293945 3.810399 0.085784 -0.146215 2.988791 0.024463 0.023763 0.78044 -0.388398 0.007518 -4.324567 -0.547951 -1.828972 9.988955 -1.908193 2.608686 -1.922031 -1.310756 -1.778164 -3.503238 0.215142 -2.965035 -7.474804 7.7e-05 -2.2e-05 6e-06 0.016841 -0.065261 0.000103 0.819807 -3.797418 -10.701097 -0.792361 3.671196 -10.708077 -18.481092 -8.365494 12.112116 -50.312862 -12.202227 22.390564 0.861817 -35.178673 -0.249114 7.370953 3.741089 -10.351696 -5.882108 9.861288 0.702591 -10.936872 -0.360575 7.156202 -1e-06 8.774828 -1e-06 -15.882352 18.056053 6.346236 -1.844033 2.498504 -2.507277 -10.163599 4.678947 4.621107 -20.976023 -1e-06 -4e-06 -21.226286 2.451699 -3.594003 0.0 -6e-06 -0.0 -1.362682 2.240798 -0.746323 -21.334915 0.584911 3.008318 -13.821215 -2e-06 -2e-06 -23.887175 -0.249081 -0.839486 -60.199314 2.297223 -0.936971 -0.294025 1.679687 0.833256 -14.21821 0.093217 1.300579 -34.212051 -0.287562 0.967164 -20.033215 0.964536 1.212841 0.0 -1e-06 -0.0 -3.44039 0.788236 0.501655 -15.928185 -3.167309 2.999704 -6.338827 -2e-06 -0.0 -18.123449 3.648183 -4.905674 -4e-06 0.0 -2e-06 15.675615 11.674026 13.181233 58.057503 15.386291 20.961351 -0.046452 28.051603 0.039576 -7.949705 -2.735875 -5.425254 2.243543 -5.255038 -3.180159 14.282893 -0.826596 6.952499 -2e-06 -12.690609 1e-06 15.868034 -17.47534 2.698218 1.665668 -1.955922 -2.878299 4.727799 -4.170589 4.993923 11.020528 2e-06 -3e-06 12.109055 -3.735718 -2.866785 -0.0 0.0 -0.0 1.291985 -1.92855 -1.498091 14.800131 0.567467 3.865608 14.242575 -1.341738 -6.660655 19.631973 0.143926 -0.648243 49.481373 -0.518555 -6.127976 0.353029 -1.511152 -0.03194 20.222794 3.684309 2.316628 18.787279 6e-06 -3e-06 10.751629 -0.479868 1.397906 0.0 2e-06 -1e-06 3.273807 0.305946 -0.580111 21.486814 11.830378 2.266129 8.162928 2e-06 -2e-06 18.399088 -3.798985 -4.940577 3e-06 0.0 -0.0 2.763065 -0.683608 -11.352807 0.00987 0.148183 18.369883 -5.764361 8.800796 -10.395602 1.622948 -1.972363 -0.093314 -0.0 -0.0 2e-06 -3.016028 0.069238 -14.321793 -0.002537 0.068193 19.490063 4.264152 -3.381217 -8.2181 -1.430983 1.105168 0.377371 0.0 -0.0 -1e-06 
0.0 0.0 0.0 0.0 -0.0 0.0 -1.26975 98.71981 3.584457 0.083418 0.041928 3.163888 -0.084031 -0.011299 1.598723 -0.436255 0.039427 -4.014685 -0.68786 -1.892418 9.961987 -1.636688 2.614684 -1.175922 -1.301725 -1.811079 -3.490872 0.348837 -3.017586 -7.957628 7.7e-05 -2.2e-05 6e-06 0.017065 -0.035064 0.001366 0.800285 -3.765729 -10.680717 -0.772361 3.699265 -10.695021 -17.182482 -8.747684 12.476716 -51.139645 -13.262737 21.441359 0.636074 -36.276772 -0.138182 7.89636 3.1607 -10.141535 -5.88211 9.861292 0.702589 -10.936877 -0.360576 7.156208 1e-06 8.774832 -0.0 -15.811485 18.111937 6.31501 -1.844035 2.498507 -2.507281 -10.163606 4.678947 4.621109 -20.97604 -5e-06 -3e-06 -21.226303 2.451694 -3.594007 2e-06 -5e-06 -1e-06 -1.362682 2.2408 -0.746324 -21.334929 0.584908 3.008317 -13.821223 -6e-06 -2e-06 -23.887184 -0.249084 -0.839486 -60.166435 2.328158 -0.934414 -0.294025 1.679688 0.833256 -14.218218 0.093214 1.300577 -34.21207 -0.287571 0.967167 -20.033226 0.96453 1.212842 0.0 -1e-06 1e-06 -3.440391 0.788233 0.501656 -15.928196 -3.167312 2.999705 -6.338829 -1e-06 -1e-06 -18.123459 3.648182 -4.905677 -4e-06 1e-06 -1e-06 14.897174 11.642236 13.45146 59.17239 15.875096 19.363367 -0.067058 29.239491 0.043013 -8.750979 -2.635702 -5.792389 2.243545 -5.255041 -3.180159 14.282902 -0.826597 6.952506 -1e-06 -12.690614 1e-06 15.953605 -17.462988 2.668348 1.665669 -1.955923 -2.878302 4.727802 -4.17059 4.993927 11.020535 1e-06 -1e-06 12.10906 -3.735719 -2.866787 -0.0 0.0 -1e-06 1.291986 -1.92855 -1.498091 14.800139 0.567465 3.865607 14.242585 -1.341739 -6.660663 19.631985 0.143925 -0.648248 49.583336 -0.488479 -6.126686 0.35303 -1.511152 -0.031939 20.222805 3.684309 2.316628 18.787289 3e-06 -3e-06 10.751636 -0.47987 1.397905 -0.0 1e-06 -1e-06 3.273809 0.305946 -0.580113 21.486828 11.830381 2.26613 8.162932 1e-06 -4e-06 18.399099 -3.798987 -4.940581 2e-06 0.0 -1e-06 2.763441 -1.546399 -13.616068 -0.010069 0.086833 22.209328 -6.176826 9.248342 -12.275448 1.628709 -2.007181 -0.273437 -0.0 0.0 2e-06 -2.994536 0.076088 -16.419039 0.009239 0.105459 23.119362 4.335185 -3.656949 -9.930879 -1.437454 1.098782 0.368426 -0.0 -0.0 -1e-06 
0.0 0.0 0.0 0.0 -0.0 0.0 -1.389059 97.82 2.999901 -0.031831 0.248429 3.415046 -0.170781 -0.061382 2.61161 -0.463438 0.042294 -3.619141 -0.780278 -1.898782 9.971198 -1.283959 2.549938 -0.636754 -1.307938 -1.88179 -3.519473 0.475309 -3.059916 -8.256469 7.7e-05 -2.2e-05 6e-06 0.020145 -0.007399 0.00139 0.782488 -3.736516 -10.677724 -0.748447 3.724309 -10.689346 -15.585196 -9.233974 12.804454 -52.077255 -14.237734 20.196609 0.471289 -38.072418 -0.022157 8.441269 2.592522 -9.77903 -5.88211 9.86129 0.702592 -10.936877 -0.360573 7.156211 -0.0 8.774828 2e-06 -15.782262 18.286039 6.299119 -1.844034 2.498506 -2.507278 -10.163605 4.678948 4.621113 -20.976038 -2e-06 2e-06 -21.226299 2.451698 -3.594001 3e-06 -6e-06 -2e-06 -1.362682 2.240799 -0.746324 -21.334929 0.584913 3.008323 -13.821221 -2e-06 1e-06 -23.887184 -0.249078 -0.839484 -60.24078 2.401825 -0.996467 -0.294025 1.679688 0.833256 -14.218217 0.093215 1.300582 -34.21207 -0.28756 0.967169 -20.033226 0.964538 1.212844 0.0 -1e-06 0.0 -3.440389 0.788233 0.501655 -15.928198 -3.16731 2.99971 -6.33883 -0.0 2e-06 -18.123459 3.648184 -4.905676 -4e-06 1e-06 -1e-06 13.794372 11.707229 13.577579 60.431259 16.050175 17.487013 -0.029806 31.404408 0.002861 -9.580034 -2.618178 -6.045649 2.243541 -5.255037 -3.180158 14.282894 -0.826593 6.952503 -4e-06 -12.690607 1e-06 15.96557 -17.435005 2.666284 1.665666 -1.955922 -2.878299 4.727799 -4.170588 4.993925 11.020528 4e-06 -0.0 12.109055 -3.735717 -2.866784 -0.0 0.0 -0.0 1.291985 -1.928549 -1.498088 14.800132 0.567468 3.865611 14.242573 -1.341735 -6.660657 19.631969 0.143926 -0.648243 49.588959 -0.494994 -6.127589 0.353029 -1.511151 -0.031941 20.222797 3.684313 2.316632 18.787279 5e-06 1e-06 10.751631 -0.479868 1.397906 -0.0 0.0 -0.0 3.273808 0.305947 -0.580111 21.486818 11.830381 2.266133 8.16293 3e-06 0.0 18.399084 -3.798987 -4.940576 3e-06 -0.0 -1e-06 3.027169 -2.83931 -16.873304 -0.011236 0.024638 27.423035 -6.661355 9.865494 -14.598237 1.637699 -2.030116 -0.387851 -0.0 -0.0 2e-06 -2.805827 -0.089908 -19.42165 0.021158 0.13766 27.916479 4.381628 -3.885263 -11.972346 -1.440995 1.070761 0.405167 -0.0 0.0 -1e-06 
0.0 0.0 0.0 0.0 -0.0 0.0 -1.483511 96.596375 2.285197 -0.335505 0.243127 3.784093 -0.197316 -0.111567 3.728238 -0.467947 0.073694 -3.187311 -0.801302 -1.884212 10.079597 -0.956007 2.484456 -0.600688 -1.305685 -1.907496 -3.553774 0.588419 -3.017994 -8.488225 7.7e-05 -2.3e-05 6e-06 0.022967 0.00661 -0.005299 0.767956 -3.719195 -10.678788 -0.728446 3.733247 -10.686801 -14.107603 -9.658337 13.035812 -52.735825 -14.9637 18.630733 0.287664 -40.451393 0.134508 9.214826 1.964487 -9.199055 -5.882111 9.861295 0.702591 -10.936878 -0.360575 7.156211 1e-06 8.774833 1e-06 -15.717054 18.4235 6.297371 -1.844033 2.498505 -2.507277 -10.163605 4.678948 4.621109 -20.976038 -4e-06 -1e-06 -21.226301 2.451699 -3.594004 1e-06 -6e-06 -2e-06 -1.362683 2.240801 -0.746324 -21.334929 0.584911 3.008325 -13.821221 -2e-06 -0.0 -23.887184 -0.249078 -0.839483 -60.332767 2.45242 -1.015425 -0.294026 1.679688 0.833257 -14.218219 0.093216 1.30058 -34.212074 -0.287566 0.967166 -20.03323 0.964536 1.212843 1e-06 -1e-06 0.0 -3.440391 0.788234 0.501656 -15.928196 -3.167312 2.999707 -6.33883 -1e-06 -1e-06 -18.123459 3.648186 -4.905676 -4e-06 1e-06 -3e-06 12.666022 11.891795 13.647432 61.358471 15.970786 15.928492 -0.041775 34.618393 -0.056041 -10.259227 -2.691684 -5.685812 2.243544 -5.255041 -3.18016 14.282902 -0.826596 6.952502 -3e-06 -12.690617 2e-06 15.962693 -17.427076 2.674123 1.665668 -1.955924 -2.878301 4.727801 -4.170593 4.993926 11.020536 3e-06 -3e-06 12.109062 -3.735719 -2.86679 -0.0 0.0 -0.0 1.291987 -1.92855 -1.498089 14.800138 0.567468 3.865606 14.242584 -1.341736 -6.660664 19.631985 0.143929 -0.64825 49.602695 -0.531045 -6.112514 0.353029 -1.511151 -0.031941 20.222805 3.684314 2.316626 18.787289 6e-06 -4e-06 10.751636 -0.479868 1.397904 -0.0 0.0 -1e-06 3.273809 0.305946 -0.580113 21.486832 11.830385 2.266128 8.16293 3e-06 -3e-06 18.399097 -3.798985 -4.940583 3e-06 -0.0 -1e-06 3.529117 -4.230144 -20.711817 -0.013996 -0.049699 33.440147 -7.204535 10.668938 -17.270708 1.644671 -2.063897 -0.463993 -0.0 0.0 2e-06 -2.433276 -0.279011 -23.000103 0.031974 0.140545 33.338676 4.472077 -3.834208 -14.178222 -1.443327 1.024158 0.370986 -0.0 -0.0 -1e-06 
